<svg width="80" height="38" viewBox="0 0 80 38" fill="none" xmlns="http://www.w3.org/2000/svg">
<path d="M32.136 0V37.5236H24.3924L9.36608 15.8669H9.1264V37.5236H0V0H7.85424L22.7146 21.6201H23.028V0H32.136Z" fill="black"/>
<path d="M58.3819 0H67.4898V24.2035C67.4898 27.0006 66.8199 29.4375 65.4802 31.514C64.1404 33.5783 62.2721 35.1784 59.8753 36.3144C57.4784 37.4381 54.6944 38 51.5232 38C48.3152 38 45.5127 37.4381 43.1159 36.3144C40.7191 35.1784 38.8569 33.5783 37.5294 31.514C36.2019 29.4375 35.5382 27.0006 35.5382 24.2035V0H44.6646V23.4156C44.6646 24.7104 44.9473 25.8647 45.5127 26.8785C46.0904 27.8923 46.8955 28.6863 47.928 29.2604C48.9605 29.8345 50.1589 30.1215 51.5232 30.1215C52.8876 30.1215 54.0799 29.8345 55.1 29.2604C56.1325 28.6863 56.9376 27.8923 57.5153 26.8785C58.093 25.8647 58.3819 24.7104 58.3819 23.4156V0Z" fill="black"/>
<path d="M80 0V37.5236H70.8736V0H80Z" fill="black"/>
</svg>
